<?xml version="1.0" standalone="no"?>
<!DOCTYPE svg PUBLIC "-//W3C//DTD SVG 20010904//EN"
 "http://www.w3.org/TR/2001/REC-SVG-20010904/DTD/svg10.dtd">
<svg version="1.0" xmlns="http://www.w3.org/2000/svg"
 width="840.000000pt" height="659.000000pt" viewBox="0 0 840.000000 659.000000"
 preserveAspectRatio="xMidYMid meet">
<metadata>
Created by potrace 1.15, written by Peter Selinger 2001-2017
</metadata>
<g transform="translate(0.000000,659.000000) scale(0.100000,-0.100000)"
fill="#000000" stroke="none">
<path d="M6992 6170 c-140 -50 -394 -265 -685 -578 -277 -299 -531 -596 -1098
-1282 -456 -553 -463 -563 -587 -820 -81 -167 -145 -273 -191 -314 -21 -19
-21 -19 -114 70 -381 367 -529 517 -556 560 -43 66 -58 123 -76 289 -29 258
-86 408 -216 570 -135 168 -579 593 -999 956 -348 300 -660 543 -660 513 0
-21 125 -163 490 -555 417 -448 581 -638 623 -726 27 -55 15 -68 -38 -44 -80
37 -211 154 -716 632 -435 413 -559 520 -559 483 0 -23 133 -173 500 -565 423
-451 580 -637 610 -721 20 -54 5 -65 -52 -39 -94 45 -240 175 -764 685 -356
346 -477 456 -491 443 -17 -17 65 -114 477 -567 369 -405 508 -566 578 -667
58 -85 65 -113 29 -113 -66 0 -235 150 -958 848 -261 253 -325 310 -335 299
-44 -44 620 -836 1171 -1396 258 -261 348 -339 450 -387 92 -44 158 -60 350
-83 224 -28 325 -63 417 -146 54 -50 173 -186 358 -410 95 -115 180 -218 188
-227 13 -16 11 -22 -20 -60 -68 -83 -449 -467 -640 -645 -106 -99 -292 -269
-413 -378 -345 -311 -400 -363 -491 -466 -133 -151 -204 -256 -274 -409 -31
-68 -34 -84 -35 -165 0 -74 5 -98 24 -137 37 -76 95 -133 171 -172 177 -88
299 -47 521 174 135 134 212 238 439 596 331 523 514 790 781 1145 155 205
175 228 188 213 4 -5 90 -108 191 -229 787 -942 1365 -1541 1759 -1825 115
-82 191 -113 281 -114 91 -1 145 21 207 83 77 77 104 208 67 330 -30 103 -192
318 -399 530 -202 207 -270 266 -1000 866 -373 307 -835 708 -835 724 0 4 21
30 48 57 56 59 147 111 332 189 342 145 562 288 725 472 98 110 300 364 462
578 777 1033 1131 1795 900 1935 -40 25 -67 25 -135 0z"/>
</g>
</svg>
